<svg width="288" height="75" viewBox="0 0 288 75" fill="none" xmlns="http://www.w3.org/2000/svg">
<path d="M40.2568 59H34.2256V37.9688H11.2881V59H5.28809V13.5H11.2881V33.0625H34.2256V13.5H40.2568V59ZM76.6006 47.125H57.5381L53.2568 59H47.0693L64.4443 13.5H69.6943L87.1006 59H80.9443L76.6006 47.125ZM59.3506 42.1875H74.8193L67.0693 20.9062L59.3506 42.1875ZM99.2568 54.0938H120.819V59H93.2256V13.5H99.2568V54.0938ZM153.413 47.125H134.351L130.069 59H123.882L141.257 13.5H146.507L163.913 59H157.757L153.413 47.125ZM136.163 42.1875H151.632L143.882 20.9062L136.163 42.1875ZM176.069 54.0938H197.632V59H170.038V13.5H176.069V54.0938ZM270.524 40.5938H259.837V59H253.806V13.5H268.868C273.993 13.5 277.931 14.6667 280.681 17C283.451 19.3333 284.837 22.7292 284.837 27.1875C284.837 30.0208 284.066 32.4896 282.524 34.5938C281.004 36.6979 278.879 38.2708 276.149 39.3125L286.837 58.625V59H280.399L270.524 40.5938ZM259.837 35.6875H269.056C272.035 35.6875 274.399 34.9167 276.149 33.375C277.92 31.8333 278.806 29.7708 278.806 27.1875C278.806 24.375 277.962 22.2188 276.274 20.7188C274.608 19.2188 272.191 18.4583 269.024 18.4375H259.837V35.6875Z" fill="#333333"/>
<path d="M240.322 17.9779C232.863 10.6036 220.838 10.6627 213.452 18.1144C206.06 25.5721 206.113 37.6102 213.571 45.0023C221.028 52.3944 233.066 52.3412 240.459 44.8836C247.845 37.4318 247.798 25.407 240.358 18.0134C249.879 27.4699 249.941 42.8542 240.492 52.3872C231.037 61.9261 215.639 61.9941 206.1 52.5391C196.561 43.084 196.493 27.6864 205.948 18.1475C215.397 8.6146 230.782 8.54071 240.322 17.9779Z" fill="#333333"/>
</svg>
